<?xml version="1.0" encoding="UTF-8"?>
<svg version="1.1" xmlns="http://www.w3.org/2000/svg" width="1024" height="456">
<path d="M0 0 C0.99 0 1.98 0 3 0 C3 49.83 3 99.66 3 151 C89.13 151 175.26 151 264 151 C264 101.17 264 51.34 264 0 C264.66 0 265.32 0 266 0 C266 49.83 266 99.66 266 151 C352.13 151 438.26 151 527 151 C527 101.17 527 51.34 527 0 C527.99 0 528.98 0 530 0 C530 49.83 530 99.66 530 151 C606.89 151 683.78 151 763 151 C763 151.66 763 152.32 763 153 C685.78 153 608.56 153 529 153 C529 202.83 529 252.66 529 304 C606.22 304 683.44 304 763 304 C763 304.99 763 305.98 763 307 C685.78 307 608.56 307 529 307 C529 356.17 529 405.34 529 456 C528.01 456 527.02 456 526 456 C526 406.83 526 357.66 526 307 C439.87 307 353.74 307 265 307 C265 356.17 265 405.34 265 456 C264.34 456 263.68 456 263 456 C263 406.83 263 357.66 263 307 C176.87 307 90.74 307 2 307 C2 356.17 2 405.34 2 456 C1.01 456 0.02 456 -1 456 C-1 406.83 -1 357.66 -1 307 C-86.8 307 -172.6 307 -261 307 C-261 306.01 -261 305.02 -261 304 C-175.2 304 -89.4 304 -1 304 C-1 254.17 -1 204.34 -1 153 C-86.8 153 -172.6 153 -261 153 C-261 152.34 -261 151.68 -261 151 C-174.87 151 -88.74 151 0 151 C0 101.17 0 51.34 0 0 Z M2 153 C2 202.83 2 252.66 2 304 C88.13 304 174.26 304 263 304 C263 254.17 263 204.34 263 153 C176.87 153 90.74 153 2 153 Z M265 153 C265 202.83 265 252.66 265 304 C351.13 304 437.26 304 526 304 C526 254.17 526 204.34 526 153 C439.87 153 353.74 153 265 153 Z " fill="#EBEBEB" transform="translate(261,0)"/>
</svg>
